<svg width="732" height="63" viewBox="0 0 732 63" fill="none" xmlns="http://www.w3.org/2000/svg">
<path d="M14.3965 47V48H14.9866L15.2719 47.4834L14.3965 47ZM2.26758 47L1.4394 46.4395L0.383364 48H2.26758V47ZM10.793 34.4023L11.6211 34.9628L12.2379 34.0514L11.2718 33.5244L10.793 34.4023ZM9.00586 16.5898L9.59478 17.398L9.59588 17.3972L9.00586 16.5898ZM35.5781 13.8066H36.5781V12.8066H35.5781V13.8066ZM35.5781 47V48H36.5781V47H35.5781ZM24.123 47H23.123V48H24.123V47ZM24.123 35.4863H25.123V34.4863H24.123V35.4863ZM20.7539 35.4863V34.4863H20.1638L19.8785 35.003L20.7539 35.4863ZM17.7656 27.166L17.1487 27.9531L17.1554 27.9583L17.1622 27.9634L17.7656 27.166ZM24.123 27.9863V28.9863H25.123V27.9863H24.123ZM24.123 21.3066H25.123V20.3066H24.123V21.3066ZM17.7656 22.2148L17.1334 21.4399L17.1234 21.4483L17.7656 22.2148ZM14.3965 46H2.26758V48H14.3965V46ZM3.09576 47.5605L11.6211 34.9628L9.96479 33.8419L1.4394 46.4395L3.09576 47.5605ZM11.2718 33.5244C9.71638 32.676 8.49155 31.4792 7.58591 29.9165L5.8555 30.9194C6.94204 32.7942 8.43206 34.2537 10.3141 35.2802L11.2718 33.5244ZM7.58591 29.9165C6.68992 28.3705 6.22656 26.5561 6.22656 24.4414H4.22656C4.22656 26.858 4.7593 29.0279 5.8555 30.9194L7.58591 29.9165ZM6.22656 24.4414C6.22656 21.3291 7.35949 19.0269 9.59478 17.398L8.41694 15.7817C5.61317 17.8247 4.22656 20.7569 4.22656 24.4414H6.22656ZM9.59588 17.3972C11.9006 15.713 15.2368 14.8066 19.7285 14.8066V12.8066C15.0015 12.8066 11.1893 13.7557 8.41584 15.7825L9.59588 17.3972ZM19.7285 14.8066H35.5781V12.8066H19.7285V14.8066ZM34.5781 13.8066V47H36.5781V13.8066H34.5781ZM35.5781 46H24.123V48H35.5781V46ZM25.123 47V35.4863H23.123V47H25.123ZM24.123 34.4863H20.7539V36.4863H24.123V34.4863ZM19.8785 35.003L13.5211 46.5166L15.2719 47.4834L21.6293 35.9697L19.8785 35.003ZM15.6816 24.793C15.6816 26.0786 16.1563 27.1752 17.1487 27.9531L18.3825 26.379C17.9296 26.024 17.6816 25.5386 17.6816 24.793H15.6816ZM17.1622 27.9634C18.1249 28.692 19.4069 28.9863 20.8711 28.9863V26.9863C19.64 26.9863 18.8516 26.7338 18.3691 26.3686L17.1622 27.9634ZM20.8711 28.9863H24.123V26.9863H20.8711V28.9863ZM25.123 27.9863V21.3066H23.123V27.9863H25.123ZM24.123 20.3066H20.8125V22.3066H24.123V20.3066ZM20.8125 20.3066C19.3728 20.3066 18.1074 20.6454 17.1335 21.44L18.3978 22.9897C18.9082 22.5733 19.6741 22.3066 20.8125 22.3066V20.3066ZM17.1234 21.4483C16.1322 22.2788 15.6816 23.4431 15.6816 24.793H17.6816C17.6816 23.9163 17.9538 23.3618 18.4078 22.9814L17.1234 21.4483ZM69.2988 13.8066H70.2988V12.8066H69.2988V13.8066ZM69.2695 23.6797L68.2702 23.644L68.2695 23.6618V23.6797H69.2695ZM68.8887 34.1094L67.8895 34.0698L67.7462 37.6848L69.7257 34.6565L68.8887 34.1094ZM82.1602 13.8066V12.8066H81.6191L81.3231 13.2595L82.1602 13.8066ZM94.8164 13.8066H95.8164V12.8066H94.8164V13.8066ZM94.8164 47V48H95.8164V47H94.8164ZM84.6211 47H83.6211V48H84.6211V47ZM85.0312 26.8438L86.0292 26.9073L86.2696 23.1307L84.1949 26.2955L85.0312 26.8438ZM71.8184 47V48H72.3585L72.6547 47.5482L71.8184 47ZM59.1035 47H58.1035V48H59.1035V47ZM59.1035 13.8066V12.8066H58.1035V13.8066H59.1035ZM68.2988 13.8066V22.1562H70.2988V13.8066H68.2988ZM68.2988 22.1562C68.2988 22.6113 68.2893 23.1071 68.2702 23.644L70.2689 23.7154C70.2888 23.1585 70.2988 22.6387 70.2988 22.1562H68.2988ZM68.2695 23.6797C68.2695 24.2005 68.1441 27.6451 67.8895 34.0698L69.8879 34.149C70.1411 27.7612 70.2695 24.2526 70.2695 23.6797H68.2695ZM69.7257 34.6565L82.9972 14.3538L81.3231 13.2595L68.0516 33.5622L69.7257 34.6565ZM82.1602 14.8066H94.8164V12.8066H82.1602V14.8066ZM93.8164 13.8066V47H95.8164V13.8066H93.8164ZM94.8164 46H84.6211V48H94.8164V46ZM85.6211 47V38.0059H83.6211V47H85.6211ZM85.6211 38.0059C85.6211 34.8886 85.7567 31.1901 86.0292 26.9073L84.0333 26.7802C83.7589 31.0912 83.6211 34.834 83.6211 38.0059H85.6211ZM84.1949 26.2955L70.982 46.4518L72.6547 47.5482L85.8676 27.392L84.1949 26.2955ZM71.8184 46H59.1035V48H71.8184V46ZM60.1035 47V13.8066H58.1035V47H60.1035ZM59.1035 14.8066H69.2988V12.8066H59.1035V14.8066ZM105.51 43.1914L104.786 43.8814L104.788 43.8839L105.51 43.1914ZM129.65 15.7402L130.58 16.11L130.921 15.2526L130.093 14.8438L129.65 15.7402ZM126.281 24.207L125.881 25.1235L126.828 25.537L127.21 24.5768L126.281 24.207ZM122.443 22.7715L122.141 23.7248L122.149 23.7271L122.156 23.7293L122.443 22.7715ZM128.508 35.5449H129.508V33.7285L127.973 34.6999L128.508 35.5449ZM128.508 44.6562L129.06 45.49L129.508 45.1934V44.6562H128.508ZM117.873 46.5859C112.62 46.5859 108.798 45.1726 106.231 42.4989L104.788 43.8839C107.847 47.0696 112.266 48.5859 117.873 48.5859V46.5859ZM106.234 42.5014C103.673 39.8157 102.32 35.889 102.32 30.5645H100.32C100.32 36.2164 101.76 40.7077 104.786 43.8814L106.234 42.5014ZM102.32 30.5645C102.32 25.2424 103.778 21.2591 106.568 18.4688L105.154 17.0546C101.89 20.3191 100.32 24.8709 100.32 30.5645H102.32ZM106.568 18.4688C109.356 15.6811 113.376 14.2207 118.781 14.2207V12.2207C113.014 12.2207 108.421 13.7876 105.154 17.0546L106.568 18.4688ZM118.781 14.2207C122.478 14.2207 125.949 15.0262 129.207 16.6367L130.093 14.8438C126.555 13.0949 122.78 12.2207 118.781 12.2207V14.2207ZM128.721 15.3705L125.352 23.8373L127.21 24.5768L130.58 16.11L128.721 15.3705ZM126.681 23.2906C125.266 22.6727 123.949 22.1791 122.731 21.8137L122.156 23.7293C123.282 24.067 124.523 24.5305 125.881 25.1235L126.681 23.2906ZM122.745 21.8181C121.473 21.4151 120.15 21.2148 118.781 21.2148V23.2148C119.952 23.2148 121.07 23.3857 122.141 23.7248L122.745 21.8181ZM118.781 21.2148C116.62 21.2148 114.87 22.0806 113.656 23.8079L115.293 24.9578C116.11 23.7944 117.232 23.2148 118.781 23.2148V21.2148ZM113.656 23.8079C112.477 25.4859 111.951 27.7592 111.951 30.5059H113.951C113.951 27.9791 114.441 26.1704 115.293 24.9578L113.656 23.8079ZM111.951 30.5059C111.951 33.256 112.454 35.5001 113.619 37.0767C114.826 38.7099 116.627 39.4746 118.84 39.4746V37.4746C117.127 37.4746 115.984 36.9112 115.228 35.8881C114.43 34.8085 113.951 33.0682 113.951 30.5059H111.951ZM118.84 39.4746C122.405 39.4746 125.811 38.4351 129.043 36.3899L127.973 34.6999C125.033 36.561 121.993 37.4746 118.84 37.4746V39.4746ZM127.508 35.5449V44.6562H129.508V35.5449H127.508ZM127.956 43.8225C125.197 45.6497 121.852 46.5859 117.873 46.5859V48.5859C122.176 48.5859 125.921 47.569 129.06 45.49L127.956 43.8225ZM166.594 13.8066H167.594V12.8066H166.594V13.8066ZM166.594 47V48H167.594V47H166.594ZM155.139 47H154.139V48H155.139V47ZM155.139 22.332H156.139V21.332H155.139V22.332ZM146.555 22.332V21.332H145.555V22.332H146.555ZM146.555 47V48H147.555V47H146.555ZM135.1 47H134.1V48H135.1V47ZM135.1 13.8066V12.8066H134.1V13.8066H135.1ZM165.594 13.8066V47H167.594V13.8066H165.594ZM166.594 46H155.139V48H166.594V46ZM156.139 47V22.332H154.139V47H156.139ZM155.139 21.332H146.555V23.332H155.139V21.332ZM145.555 22.332V47H147.555V22.332H145.555ZM146.555 46H135.1V48H146.555V46ZM136.1 47V13.8066H134.1V47H136.1ZM135.1 14.8066H166.594V12.8066H135.1V14.8066ZM201.838 43.0449L201.117 42.3518L201.117 42.3519L201.838 43.0449ZM177.551 42.9277L176.828 43.6188L176.83 43.6211L177.551 42.9277ZM177.463 17.7324L176.747 17.0347L176.746 17.0347L177.463 17.7324ZM198.41 15.3008L197.925 16.1753L198.41 15.3008ZM204.182 21.2773L203.294 21.7379L203.298 21.7458L204.182 21.2773ZM185.871 36.8633L184.979 37.3151L184.981 37.3198L185.871 36.8633ZM193.459 36.8633L192.562 36.4207L192.56 36.4256L193.459 36.8633ZM185.871 23.9141L186.753 24.3853L186.756 24.3803L185.871 23.9141ZM205.232 30.3301C205.232 35.5778 203.821 39.5399 201.117 42.3518L202.559 43.738C205.714 40.4562 207.232 35.9417 207.232 30.3301H205.232ZM201.117 42.3519C198.44 45.1363 194.646 46.5859 189.592 46.5859V48.5859C195.045 48.5859 199.415 47.0082 202.559 43.7379L201.117 42.3519ZM189.592 46.5859C184.775 46.5859 181.039 45.1106 178.271 42.2344L176.83 43.6211C180.039 46.9558 184.331 48.5859 189.592 48.5859V46.5859ZM178.274 42.2367C175.522 39.3583 174.098 35.4286 174.098 30.3301H172.098C172.098 35.8175 173.642 40.2862 176.828 43.6188L178.274 42.2367ZM174.098 30.3301C174.098 25.1001 175.5 21.181 178.179 18.4301L176.746 17.0347C173.605 20.2604 172.098 24.7397 172.098 30.3301H174.098ZM178.179 18.4302C180.875 15.6624 184.691 14.2207 189.768 14.2207V12.2207C184.297 12.2207 179.91 13.7869 176.747 17.0347L178.179 18.4302ZM189.768 14.2207C192.884 14.2207 195.593 14.8819 197.925 16.1753L198.895 14.4263C196.227 12.9463 193.175 12.2207 189.768 12.2207V14.2207ZM197.925 16.1753C200.249 17.4642 202.035 19.3104 203.294 21.7379L205.069 20.8168C203.633 18.049 201.571 15.9108 198.895 14.4263L197.925 16.1753ZM203.298 21.7458C204.576 24.1552 205.232 27.0063 205.232 30.3301H207.232C207.232 26.7398 206.522 23.5557 205.065 20.8088L203.298 21.7458ZM183.729 30.3301C183.729 33.2439 184.113 35.6059 184.979 37.3151L186.763 36.4114C186.105 35.1129 185.729 33.1194 185.729 30.3301H183.729ZM184.981 37.3198C185.438 38.21 186.074 38.919 186.9 39.3982C187.722 39.8749 188.672 40.0898 189.709 40.0898V38.0898C188.949 38.0898 188.361 37.9337 187.904 37.6682C187.45 37.4052 187.066 37.0009 186.761 36.4067L184.981 37.3198ZM189.709 40.0898C190.737 40.0898 191.679 39.8743 192.49 39.3931C193.305 38.9091 193.923 38.1943 194.358 37.301L192.56 36.4256C192.272 37.0167 191.904 37.4151 191.469 37.6733C191.029 37.9343 190.458 38.0898 189.709 38.0898V40.0898ZM194.356 37.3058C195.198 35.5997 195.572 33.2417 195.572 30.3301H193.572C193.572 33.1216 193.205 35.119 192.562 36.4207L194.356 37.3058ZM195.572 30.3301C195.572 27.4409 195.199 25.1129 194.349 23.4573L192.569 24.3709C193.204 25.6059 193.572 27.5552 193.572 30.3301H195.572ZM194.349 23.4573C193.899 22.5818 193.267 21.8871 192.445 21.419C191.628 20.9542 190.683 20.7461 189.65 20.7461V22.7461C190.415 22.7461 191.003 22.8993 191.455 23.1572C191.903 23.4117 192.277 23.801 192.569 24.3709L194.349 23.4573ZM189.65 20.7461C188.634 20.7461 187.7 20.9559 186.89 21.4207C186.075 21.8878 185.444 22.579 184.986 23.4478L186.756 24.3803C187.06 23.8038 187.439 23.4111 187.885 23.1555C188.334 22.8976 188.909 22.7461 189.65 22.7461V20.7461ZM184.989 23.4428C184.111 25.0858 183.729 27.4221 183.729 30.3301H185.729C185.729 27.5349 186.107 25.5939 186.753 24.3853L184.989 23.4428ZM246.105 47V48H247.105V47H246.105ZM234.65 47H233.65V48H234.65V47ZM234.65 22.332H235.65V21.332H234.65V22.332ZM227.912 22.332V21.332H226.998L226.916 22.242L227.912 22.332ZM225.48 38.0645L226.44 38.3451L226.441 38.3436L225.48 38.0645ZM209.309 46.707H208.309V47.3772L208.928 47.632L209.309 46.707ZM209.309 38.1816L209.787 37.3037L208.309 36.4971V38.1816H209.309ZM214.025 37.3613L214.88 37.8813L214.884 37.8731L214.025 37.3613ZM215.461 32.9961L214.483 32.7852L214.481 32.7944L215.461 32.9961ZM216.604 25.3203L215.61 25.2085L215.609 25.2147L216.604 25.3203ZM217.6 13.8066V12.8066H216.666L216.602 13.7381L217.6 13.8066ZM246.105 13.8066H247.105V12.8066H246.105V13.8066ZM246.105 46H234.65V48H246.105V46ZM235.65 47V22.332H233.65V47H235.65ZM234.65 21.332H227.912V23.332H234.65V21.332ZM226.916 22.242C226.273 29.3587 225.469 34.523 224.52 37.7853L226.441 38.3436C227.446 34.8871 228.262 29.5632 228.908 22.4221L226.916 22.242ZM224.521 37.7838C223.572 41.0297 222.298 43.2485 220.779 44.5775L222.096 46.0827C224.015 44.4038 225.436 41.7789 226.44 38.3451L224.521 37.7838ZM220.779 44.5775C219.288 45.882 217.23 46.5859 214.494 46.5859V48.5859C217.578 48.5859 220.149 47.786 222.096 46.0827L220.779 44.5775ZM214.494 46.5859C212.554 46.5859 210.962 46.3054 209.689 45.7821L208.928 47.632C210.507 48.2805 212.372 48.5859 214.494 48.5859V46.5859ZM210.309 46.707V38.1816H208.309V46.707H210.309ZM208.83 39.0595C209.674 39.5198 210.717 39.709 211.887 39.709V37.709C210.908 37.709 210.233 37.5466 209.787 37.3037L208.83 39.0595ZM211.887 39.709C213.188 39.709 214.193 39.0092 214.88 37.8813L213.171 36.8414C212.764 37.5103 212.343 37.709 211.887 37.709V39.709ZM214.884 37.8731C215.519 36.8078 216.024 35.2191 216.44 33.1977L214.481 32.7944C214.077 34.7575 213.625 36.0789 213.166 36.8495L214.884 37.8731ZM216.438 33.2069C216.878 31.1667 217.264 28.5696 217.598 25.426L215.609 25.2147C215.279 28.321 214.903 30.8411 214.483 32.7853L216.438 33.2069ZM217.597 25.4321C217.951 22.2879 218.284 18.4346 218.597 13.8751L216.602 13.7381C216.29 18.2803 215.959 22.1027 215.61 25.2085L217.597 25.4321ZM217.6 14.8066H246.105V12.8066H217.6V14.8066ZM245.105 13.8066V47H247.105V13.8066H245.105ZM265.5 13.8066H266.5V12.8066H265.5V13.8066ZM265.5 25.7598H264.5V26.7598H265.5V25.7598ZM279.24 44.3633L278.662 43.5474L279.24 44.3633ZM254.045 47H253.045V48H254.045V47ZM254.045 13.8066V12.8066H253.045V13.8066H254.045ZM265.5 33.2598V32.2598H264.5V33.2598H265.5ZM265.5 39.5H264.5V40.5H265.5V39.5ZM264.5 13.8066V25.7598H266.5V13.8066H264.5ZM265.5 26.7598H266.584V24.7598H265.5V26.7598ZM266.584 26.7598C272.3 26.7598 276.234 27.5629 278.566 29.0116L279.621 27.3127C276.797 25.5582 272.391 24.7598 266.584 24.7598V26.7598ZM278.566 29.0116C280.789 30.3924 281.961 32.6473 281.961 36.0137H283.961C283.961 32.1144 282.555 29.135 279.621 27.3127L278.566 29.0116ZM281.961 36.0137C281.961 39.5898 280.811 42.0245 278.662 43.5474L279.818 45.1792C282.63 43.1864 283.961 40.0547 283.961 36.0137H281.961ZM278.662 43.5474C276.429 45.1297 272.916 46 267.961 46V48C273.084 48 277.09 47.1125 279.818 45.1792L278.662 43.5474ZM267.961 46H254.045V48H267.961V46ZM255.045 47V13.8066H253.045V47H255.045ZM254.045 14.8066H265.5V12.8066H254.045V14.8066ZM272.506 36.5117C272.506 35.1836 272.13 34.0018 271.158 33.236L269.92 34.807C270.237 35.0568 270.506 35.5351 270.506 36.5117H272.506ZM271.158 33.236C270.241 32.5137 268.881 32.2598 267.316 32.2598V34.2598C268.76 34.2598 269.548 34.5137 269.92 34.807L271.158 33.236ZM267.316 32.2598H265.5V34.2598H267.316V32.2598ZM264.5 33.2598V39.5H266.5V33.2598H264.5ZM265.5 40.5H267.434V38.5H265.5V40.5ZM267.434 40.5C268.884 40.5 270.153 40.2392 271.079 39.5592C272.064 38.8367 272.506 37.7601 272.506 36.5117H270.506C270.506 37.2555 270.269 37.673 269.896 37.9467C269.465 38.2627 268.698 38.5 267.434 38.5V40.5ZM290.842 23.4746L289.92 23.8622L290.317 24.8067L291.252 24.3867L290.842 23.4746ZM287.59 15.7402L287.208 14.816L286.278 15.2003L286.668 16.1278L287.59 15.7402ZM294.006 13.748L293.827 12.7642L293.825 12.7645L294.006 13.748ZM311.086 15.5645L310.559 16.4143L310.567 16.419L311.086 15.5645ZM313.254 26.8438L312.487 26.2024L312.486 26.2036L313.254 26.8438ZM308.889 29.4805L308.641 28.5116L307.889 28.7037V29.4805H308.889ZM308.889 29.7734H307.889V30.649L308.757 30.7647L308.889 29.7734ZM293.127 47.1172L292.964 48.1039L292.966 48.1041L293.127 47.1172ZM287.004 45.2715H286.004V45.9363L286.617 46.1936L287.004 45.2715ZM287.004 36.5117L287.419 35.6018L286.004 34.9567V36.5117H287.004ZM303.41 34.0801L303.019 35.0003L303.026 35.0032L303.41 34.0801ZM294.064 33.4941H293.064V34.4941H294.064V33.4941ZM294.064 26.0527V25.0527H293.064V26.0527H294.064ZM297.668 27.0527C299.969 27.0527 301.772 26.8617 302.955 26.3978L302.225 24.5358C301.416 24.8531 299.938 25.0527 297.668 25.0527V27.0527ZM302.955 26.3978C303.563 26.1593 304.103 25.8171 304.493 25.3283C304.894 24.8249 305.084 24.2296 305.084 23.5918H303.084C303.084 23.8133 303.025 23.9602 302.928 24.0819C302.82 24.218 302.613 24.3837 302.225 24.5358L302.955 26.3978ZM305.084 23.5918C305.084 23.052 304.947 22.5347 304.645 22.0784C304.347 21.6279 303.925 21.2937 303.442 21.0506C302.505 20.5788 301.225 20.3945 299.719 20.3945V22.3945C301.122 22.3945 302.025 22.5765 302.543 22.8371C302.788 22.9602 302.912 23.0838 302.977 23.1826C303.039 23.2756 303.084 23.3992 303.084 23.5918H305.084ZM299.719 20.3945C296.721 20.3945 293.622 21.1289 290.432 22.5625L291.252 24.3867C294.233 23.0469 297.053 22.3945 299.719 22.3945V20.3945ZM291.764 23.087L288.512 15.3526L286.668 16.1278L289.92 23.8622L291.764 23.087ZM287.972 16.6644C290.289 15.7068 292.359 15.0673 294.187 14.7316L293.825 12.7645C291.825 13.132 289.617 13.8205 287.208 14.816L287.972 16.6644ZM294.185 14.7319C296.053 14.3922 298.053 14.2207 300.188 14.2207V12.2207C297.947 12.2207 295.826 12.4008 293.827 12.7642L294.185 14.7319ZM300.188 14.2207C304.849 14.2207 308.266 14.9924 310.559 16.4143L311.613 14.7146C308.867 13.0115 305.018 12.2207 300.188 12.2207V14.2207ZM310.567 16.419C312.817 17.7868 313.895 19.6852 313.895 22.2148H315.895C315.895 18.9632 314.433 16.428 311.605 14.7099L310.567 16.419ZM313.895 22.2148C313.895 23.7685 313.423 25.0818 312.487 26.2024L314.021 27.4851C315.272 25.9885 315.895 24.2159 315.895 22.2148H313.895ZM312.486 26.2036C311.563 27.3105 310.301 28.0878 308.641 28.5116L309.136 30.4494C311.148 29.9356 312.796 28.9551 314.022 27.4839L312.486 26.2036ZM307.889 29.4805V29.7734H309.889V29.4805H307.889ZM308.757 30.7647C310.937 31.0553 312.521 31.8112 313.615 32.9549L315.061 31.5724C313.576 30.0208 311.528 29.1165 309.021 28.7822L308.757 30.7647ZM313.615 32.9549C314.696 34.0846 315.271 35.5887 315.271 37.5664H317.271C317.271 35.1691 316.558 33.138 315.061 31.5724L313.615 32.9549ZM315.271 37.5664C315.271 40.57 314.059 42.743 311.602 44.2248C309.065 45.7554 305.129 46.5859 299.66 46.5859V48.5859C305.265 48.5859 309.636 47.7466 312.635 45.9373C315.716 44.0792 317.271 41.2425 317.271 37.5664H315.271ZM299.66 46.5859C297.26 46.5859 295.137 46.4322 293.288 46.1303L292.966 48.1041C294.945 48.4272 297.178 48.5859 299.66 48.5859V46.5859ZM293.29 46.1305C291.488 45.8333 289.523 45.2439 287.391 44.3494L286.617 46.1936C288.86 47.135 290.977 47.7761 292.964 48.1039L293.29 46.1305ZM288.004 45.2715V36.5117H286.004V45.2715H288.004ZM286.589 37.4216C290.491 39.2008 294.627 40.0898 298.986 40.0898V38.0898C294.908 38.0898 291.056 37.2601 287.419 35.6018L286.589 37.4216ZM298.986 40.0898C300.869 40.0898 302.457 39.8498 303.676 39.2977L302.851 37.4758C302 37.8611 300.736 38.0898 298.986 38.0898V40.0898ZM303.676 39.2977C304.307 39.012 304.851 38.6199 305.237 38.088C305.631 37.5458 305.816 36.9184 305.816 36.248H303.816C303.816 36.5347 303.743 36.7423 303.619 36.913C303.488 37.094 303.255 37.2927 302.851 37.4758L303.676 39.2977ZM305.816 36.248C305.816 35.5712 305.665 34.9273 305.304 34.3708C304.941 33.8117 304.416 33.4157 303.795 33.157L303.026 35.0032C303.342 35.1351 303.52 35.2957 303.626 35.4592C303.734 35.6255 303.816 35.8703 303.816 36.248H305.816ZM303.802 33.1599C302.676 32.6809 300.818 32.4941 298.4 32.4941V34.4941C300.827 34.4941 302.308 34.698 303.019 35.0002L303.802 33.1599ZM298.4 32.4941H294.064V34.4941H298.4V32.4941ZM295.064 33.4941V26.0527H293.064V33.4941H295.064ZM294.064 27.0527H297.668V25.0527H294.064V27.0527ZM318.117 13.8066V12.8066H316.641L317.188 14.1775L318.117 13.8066ZM330.188 13.8066L331.147 13.5234L330.935 12.8066H330.188V13.8066ZM335.812 32.8496L336.777 32.5849L336.774 32.5756L336.772 32.5663L335.812 32.8496ZM336.369 36.4531L335.372 36.5224L335.436 37.4531H336.369V36.4531ZM336.604 36.4531V37.4531H337.494L337.597 36.5683L336.604 36.4531ZM337.307 32.9082L338.262 33.2023L338.264 33.1974L337.307 32.9082ZM343.078 13.8066V12.8066H342.336L342.121 13.5174L343.078 13.8066ZM354.768 13.8066L355.705 14.1551L356.206 12.8066H354.768V13.8066ZM341.643 49.1094L342.579 49.4596L342.58 49.4579L341.643 49.1094ZM335.432 58.6309L334.83 57.8324L334.827 57.8347L335.432 58.6309ZM321.164 60.916H320.164V61.73L320.961 61.8952L321.164 60.916ZM321.164 51.9219L321.385 50.9466L320.164 50.6702V51.9219H321.164ZM329.367 50.0176L328.588 49.3902L328.58 49.4007L329.367 50.0176ZM331.184 46.5312L332.113 46.9007L332.26 46.5305L332.112 46.1604L331.184 46.5312ZM318.117 14.8066H330.188V12.8066H318.117V14.8066ZM329.228 14.0899L334.853 33.1329L336.772 32.5663L331.147 13.5234L329.228 14.0899ZM334.848 33.1143C335.099 34.0282 335.277 35.1601 335.372 36.5224L337.367 36.3838C337.266 34.9336 337.073 33.6632 336.777 32.5849L334.848 33.1143ZM336.369 37.4531H336.604V35.4531H336.369V37.4531ZM337.597 36.5683C337.748 35.2656 337.972 34.1461 338.262 33.2023L336.351 32.6141C336.016 33.7015 335.772 34.9454 335.61 36.338L337.597 36.5683ZM338.264 33.1974L344.035 14.0959L342.121 13.5174L336.349 32.619L338.264 33.1974ZM343.078 14.8066H354.768V12.8066H343.078V14.8066ZM353.83 13.4582L340.705 48.7609L342.58 49.4579L355.705 14.1551L353.83 13.4582ZM340.706 48.7591C339.059 53.1643 337.076 56.1386 334.83 57.8324L336.034 59.4293C338.709 57.4122 340.867 54.0388 342.579 49.4596L340.706 48.7591ZM334.827 57.8347C332.603 59.5243 329.641 60.4141 325.852 60.4141V62.4141C329.952 62.4141 333.377 61.4484 336.037 59.427L334.827 57.8347ZM325.852 60.4141C324.401 60.4141 322.907 60.256 321.367 59.9368L320.961 61.8952C322.625 62.2401 324.255 62.4141 325.852 62.4141V60.4141ZM322.164 60.916V51.9219H320.164V60.916H322.164ZM320.943 52.8972C322.066 53.1515 323.324 53.2734 324.709 53.2734V51.2734C323.437 51.2734 322.332 51.161 321.385 50.9466L320.943 52.8972ZM324.709 53.2734C325.854 53.2734 326.904 53.0527 327.831 52.5773L326.919 50.7977C326.322 51.1036 325.595 51.2734 324.709 51.2734V53.2734ZM327.831 52.5773C328.731 52.116 329.505 51.4625 330.154 50.6345L328.58 49.4007C328.096 50.0179 327.543 50.4778 326.919 50.7977L327.831 52.5773ZM330.146 50.6449C330.809 49.8215 331.459 48.5452 332.113 46.9007L330.254 46.1618C329.619 47.7595 329.058 48.8074 328.588 49.3903L330.146 50.6449ZM332.112 46.1604L319.046 13.4358L317.188 14.1775L330.255 46.9021L332.112 46.1604ZM402.141 43.0742L402.869 43.7597L402.871 43.7574L402.141 43.0742ZM379.816 44.0996L379.171 44.8638L379.174 44.8661L379.816 44.0996ZM374.66 34.2852L375.647 34.1252L375.511 33.2852H374.66V34.2852ZM370.207 34.2852V33.2852H369.207V34.2852H370.207ZM370.207 47V48H371.207V47H370.207ZM358.752 47H357.752V48H358.752V47ZM358.752 13.8066V12.8066H357.752V13.8066H358.752ZM370.207 13.8066H371.207V12.8066H370.207V13.8066ZM370.207 25.7598H369.207V26.7598H370.207V25.7598ZM374.719 25.7598V26.7598H375.551L375.702 25.9412L374.719 25.7598ZM379.904 16.4727L379.283 15.6891L379.28 15.6912L379.904 16.4727ZM398.801 15.2715L398.306 16.1406L398.309 16.1423L398.801 15.2715ZM404.396 21.1895L403.505 21.6421L403.508 21.6474L404.396 21.1895ZM387.023 36.9805L386.122 37.4128L386.125 37.4203L386.129 37.4277L387.023 36.9805ZM393.762 36.8633L394.675 37.2717L394.677 37.2672L393.762 36.8633ZM393.732 23.9141L392.824 24.3316L392.828 24.3416L393.732 23.9141ZM386.965 23.9141L386.056 23.4966L386.054 23.5021L386.965 23.9141ZM405.389 30.3301C405.389 35.6283 404.02 39.6019 401.41 42.3911L402.871 43.7574C405.926 40.4919 407.389 35.9694 407.389 30.3301H405.389ZM401.413 42.3887C398.812 45.1505 395.137 46.5859 390.246 46.5859V48.5859C395.55 48.5859 399.805 47.0135 402.869 43.7597L401.413 42.3887ZM390.246 46.5859C386.263 46.5859 383.025 45.4835 380.459 43.3332L379.174 44.8661C382.155 47.3641 385.87 48.5859 390.246 48.5859V46.5859ZM380.461 43.3354C377.923 41.1929 376.3 38.1542 375.647 34.1252L373.673 34.4451C374.387 38.8536 376.202 42.3579 379.171 44.8638L380.461 43.3354ZM374.66 33.2852H370.207V35.2852H374.66V33.2852ZM369.207 34.2852V47H371.207V34.2852H369.207ZM370.207 46H358.752V48H370.207V46ZM359.752 47V13.8066H357.752V47H359.752ZM358.752 14.8066H370.207V12.8066H358.752V14.8066ZM369.207 13.8066V25.7598H371.207V13.8066H369.207ZM370.207 26.7598H374.719V24.7598H370.207V26.7598ZM375.702 25.9412C376.409 22.1101 378.034 19.2459 380.528 17.2541L379.28 15.6912C376.345 18.0354 374.513 21.3625 373.735 25.5784L375.702 25.9412ZM380.526 17.2562C383.045 15.2584 386.326 14.2207 390.451 14.2207V12.2207C385.982 12.2207 382.232 13.3509 379.283 15.6891L380.526 17.2562ZM390.451 14.2207C393.467 14.2207 396.075 14.871 398.306 16.1406L399.295 14.4024C396.722 12.9376 393.763 12.2207 390.451 12.2207V14.2207ZM398.309 16.1423C400.552 17.4086 402.282 19.2324 403.505 21.6421L405.288 20.7368C403.894 17.9903 401.893 15.8687 399.292 14.4007L398.309 16.1423ZM403.508 21.6474C404.749 24.0569 405.389 26.9403 405.389 30.3301H407.389C407.389 26.6886 406.7 23.4782 405.285 20.7315L403.508 21.6474ZM384.998 30.3301C384.998 33.3762 385.338 35.7786 386.122 37.4128L387.925 36.5481C387.341 35.3307 386.998 33.2996 386.998 30.3301H384.998ZM386.129 37.4277C386.546 38.2621 387.113 38.9416 387.852 39.408C388.592 39.8755 389.443 40.0898 390.363 40.0898V38.0898C389.76 38.0898 389.293 37.9526 388.92 37.717C388.545 37.4803 388.204 37.1051 387.918 36.5333L386.129 37.4277ZM390.363 40.0898C391.323 40.0898 392.205 39.8657 392.962 39.3697C393.718 38.8743 394.28 38.1531 394.675 37.2716L392.849 36.4549C392.579 37.0579 392.243 37.4499 391.866 37.6967C391.49 37.9429 391.006 38.0898 390.363 38.0898V40.0898ZM394.677 37.2672C395.424 35.575 395.758 33.2333 395.758 30.3301H393.758C393.758 33.13 393.428 35.1438 392.847 36.4593L394.677 37.2672ZM395.758 30.3301C395.758 27.4473 395.415 25.1318 394.636 23.4865L392.828 24.3416C393.417 25.5869 393.758 27.5488 393.758 30.3301H395.758ZM394.641 23.4966C394.243 22.6298 393.674 21.9248 392.912 21.4429C392.151 20.9619 391.266 20.7461 390.305 20.7461V22.7461C390.964 22.7461 391.461 22.8916 391.843 23.1332C392.224 23.3741 392.558 23.753 392.824 24.3316L394.641 23.4966ZM390.305 20.7461C389.365 20.7461 388.499 20.9653 387.753 21.4493C387.009 21.9326 386.451 22.6363 386.056 23.4966L387.874 24.3316C388.142 23.7465 388.474 23.3662 388.842 23.1269C389.21 22.8883 389.682 22.7461 390.305 22.7461V20.7461ZM386.054 23.5021C385.32 25.1239 384.998 27.4344 384.998 30.3301H386.998C386.998 27.5226 387.32 25.5558 387.876 24.326L386.054 23.5021ZM448.107 47V48H449.107V47H448.107ZM436.535 47H435.535V48H436.535V47ZM436.535 13.6309H437.535V12.6309H436.535V13.6309ZM426.076 13.6309H425.076V14.6309H426.076V13.6309ZM426.076 4.16797V3.16797H425.076V4.16797H426.076ZM458.537 4.16797H459.537V3.16797H458.537V4.16797ZM458.537 13.6309V14.6309H459.537V13.6309H458.537ZM448.107 13.6309V12.6309H447.107V13.6309H448.107ZM448.107 46H436.535V48H448.107V46ZM437.535 47V13.6309H435.535V47H437.535ZM436.535 12.6309H426.076V14.6309H436.535V12.6309ZM427.076 13.6309V4.16797H425.076V13.6309H427.076ZM426.076 5.16797H458.537V3.16797H426.076V5.16797ZM457.537 4.16797V13.6309H459.537V4.16797H457.537ZM458.537 12.6309H448.107V14.6309H458.537V12.6309ZM447.107 13.6309V47H449.107V13.6309H447.107ZM467.121 43.1914L466.426 43.91L466.43 43.9144L467.121 43.1914ZM466.799 17.7324L467.525 18.4203L467.527 18.4179L466.799 17.7324ZM490.5 17.1465L489.806 17.8664L489.811 17.8715L490.5 17.1465ZM494.602 33.4941V34.4941H495.602V33.4941H494.602ZM474.123 33.4941V32.4941H473.08L473.124 33.5362L474.123 33.4941ZM476.145 37.8594L475.505 38.6286L475.511 38.6333L476.145 37.8594ZM486.926 38.8848L487.142 39.8613L487.15 39.8593L486.926 38.8848ZM492.434 36.9219H493.434V35.3536L492.012 36.0152L492.434 36.9219ZM492.434 45.1543L492.889 46.0448L493.434 45.7664V45.1543H492.434ZM475.939 22.3027L476.622 23.0333L476.623 23.0328L475.939 22.3027ZM474.357 26.2871L473.361 26.2014L473.268 27.2871H474.357V26.2871ZM484.201 26.2871V27.2871H485.226L485.201 26.2627L484.201 26.2871ZM482.824 22.4492L482.08 23.1174L482.088 23.1256L482.824 22.4492ZM480.012 46.5859C474.661 46.5859 470.641 45.1714 467.812 42.4684L466.43 43.9144C469.734 47.0708 474.308 48.5859 480.012 48.5859V46.5859ZM467.817 42.4729C465.015 39.7612 463.551 35.8619 463.551 30.623H461.551C461.551 36.2436 463.133 40.7231 466.426 43.9099L467.817 42.4729ZM463.551 30.623C463.551 25.1794 464.924 21.1642 467.525 18.4203L466.073 17.0445C463.009 20.2772 461.551 24.8558 461.551 30.623H463.551ZM467.527 18.4179C470.122 15.6621 473.87 14.2207 478.928 14.2207V12.2207C473.478 12.2207 469.14 13.7871 466.071 17.0469L467.527 18.4179ZM478.928 14.2207C483.756 14.2207 487.332 15.4813 489.806 17.8664L491.194 16.4265C488.238 13.5773 484.1 12.2207 478.928 12.2207V14.2207ZM489.811 17.8715C492.292 20.2281 493.602 23.6819 493.602 28.3965H495.602C495.602 23.3064 494.177 19.2601 491.189 16.4215L489.811 17.8715ZM493.602 28.3965V33.4941H495.602V28.3965H493.602ZM494.602 32.4941H474.123V34.4941H494.602V32.4941ZM473.124 33.5362C473.212 35.6348 473.99 37.3696 475.506 38.6286L476.784 37.0902C475.76 36.2397 475.19 35.0644 475.122 33.4521L473.124 33.5362ZM475.511 38.6333C477.03 39.8758 479.026 40.4414 481.389 40.4414V38.4414C479.337 38.4414 477.837 37.9524 476.778 37.0854L475.511 38.6333ZM481.389 40.4414C483.461 40.4414 485.38 40.2503 487.142 39.8612L486.71 37.9083C485.112 38.2614 483.34 38.4414 481.389 38.4414V40.4414ZM487.15 39.8593C488.932 39.4498 490.834 38.7691 492.855 37.8285L492.012 36.0152C490.088 36.9106 488.318 37.5385 486.702 37.9102L487.15 39.8593ZM491.434 36.9219V45.1543H493.434V36.9219H491.434ZM491.979 44.2638C490.265 45.1392 488.502 45.7417 486.687 46.075L487.048 48.0421C489.061 47.6724 491.008 47.0053 492.889 46.0448L491.979 44.2638ZM486.687 46.075C484.849 46.4125 482.628 46.5859 480.012 46.5859V48.5859C482.708 48.5859 485.057 48.4078 487.048 48.0421L486.687 46.075ZM479.338 20.0137C477.756 20.0137 476.373 20.5267 475.256 21.5727L476.623 23.0328C477.341 22.36 478.224 22.0137 479.338 22.0137V20.0137ZM475.257 21.5722C474.107 22.6464 473.529 24.2549 473.361 26.2014L475.354 26.3728C475.499 24.6865 475.975 23.6388 476.622 23.0333L475.257 21.5722ZM474.357 27.2871H484.201V25.2871H474.357V27.2871ZM485.201 26.2627C485.157 24.4778 484.639 22.9471 483.561 21.7728L482.088 23.1256C482.767 23.8654 483.167 24.8933 483.201 26.3115L485.201 26.2627ZM483.568 21.7811C482.492 20.5824 481.043 20.0137 479.338 20.0137V22.0137C480.562 22.0137 481.438 22.402 482.08 23.1173L483.568 21.7811ZM512.531 47V48H513.531V47H512.531ZM501.076 47H500.076V48H501.076V47ZM501.076 1.41406V0.414062H500.076V1.41406H501.076ZM512.531 1.41406H513.531V0.414062H512.531V1.41406ZM512.531 46H501.076V48H512.531V46ZM502.076 47V1.41406H500.076V47H502.076ZM501.076 2.41406H512.531V0.414062H501.076V2.41406ZM511.531 1.41406V47H513.531V1.41406H511.531ZM523.605 43.1914L522.91 43.91L522.915 43.9144L523.605 43.1914ZM523.283 17.7324L524.009 18.4203L524.011 18.4179L523.283 17.7324ZM546.984 17.1465L546.29 17.8664L546.296 17.8715L546.984 17.1465ZM551.086 33.4941V34.4941H552.086V33.4941H551.086ZM530.607 33.4941V32.4941H529.564L529.608 33.5362L530.607 33.4941ZM532.629 37.8594L531.99 38.6286L531.996 38.6333L532.629 37.8594ZM543.41 38.8848L543.626 39.8613L543.634 39.8593L543.41 38.8848ZM548.918 36.9219H549.918V35.3536L548.496 36.0152L548.918 36.9219ZM548.918 45.1543L549.373 46.0448L549.918 45.7664V45.1543H548.918ZM532.424 22.3027L533.107 23.0333L533.107 23.0328L532.424 22.3027ZM530.842 26.2871L529.845 26.2014L529.752 27.2871H530.842V26.2871ZM540.686 26.2871V27.2871H541.71L541.685 26.2627L540.686 26.2871ZM539.309 22.4492L538.565 23.1174L538.572 23.1256L539.309 22.4492ZM536.496 46.5859C531.145 46.5859 527.125 45.1714 524.296 42.4684L522.915 43.9144C526.218 47.0708 530.792 48.5859 536.496 48.5859V46.5859ZM524.301 42.4729C521.5 39.7612 520.035 35.8619 520.035 30.623H518.035C518.035 36.2436 519.618 40.7231 522.91 43.9099L524.301 42.4729ZM520.035 30.623C520.035 25.1794 521.409 21.1642 524.009 18.4203L522.557 17.0445C519.494 20.2772 518.035 24.8558 518.035 30.623H520.035ZM524.011 18.4179C526.606 15.6621 530.354 14.2207 535.412 14.2207V12.2207C529.962 12.2207 525.624 13.7871 522.555 17.0469L524.011 18.4179ZM535.412 14.2207C540.24 14.2207 543.816 15.4813 546.29 17.8664L547.678 16.4265C544.723 13.5773 540.584 12.2207 535.412 12.2207V14.2207ZM546.296 17.8715C548.776 20.2281 550.086 23.6819 550.086 28.3965H552.086C552.086 23.3064 550.661 19.2601 547.673 16.4215L546.296 17.8715ZM550.086 28.3965V33.4941H552.086V28.3965H550.086ZM551.086 32.4941H530.607V34.4941H551.086V32.4941ZM529.608 33.5362C529.697 35.6348 530.474 37.3696 531.99 38.6286L533.268 37.0902C532.244 36.2397 531.674 35.0644 531.607 33.4521L529.608 33.5362ZM531.996 38.6333C533.514 39.8758 535.511 40.4414 537.873 40.4414V38.4414C535.821 38.4414 534.322 37.9524 533.262 37.0854L531.996 38.6333ZM537.873 40.4414C539.945 40.4414 541.865 40.2503 543.626 39.8612L543.194 37.9083C541.596 38.2614 539.824 38.4414 537.873 38.4414V40.4414ZM543.634 39.8593C545.416 39.4498 547.319 38.7691 549.34 37.8285L548.496 36.0152C546.572 36.9106 544.803 37.5385 543.186 37.9102L543.634 39.8593ZM547.918 36.9219V45.1543H549.918V36.9219H547.918ZM548.463 44.2638C546.749 45.1392 544.986 45.7417 543.171 46.075L543.532 48.0421C545.545 47.6724 547.493 47.0053 549.373 46.0448L548.463 44.2638ZM543.171 46.075C541.333 46.4125 539.112 46.5859 536.496 46.5859V48.5859C539.193 48.5859 541.542 48.4078 543.532 48.0421L543.171 46.075ZM535.822 20.0137C534.241 20.0137 532.858 20.5267 531.74 21.5727L533.107 23.0328C533.826 22.36 534.708 22.0137 535.822 22.0137V20.0137ZM531.741 21.5722C530.592 22.6464 530.013 24.2549 529.845 26.2014L531.838 26.3728C531.983 24.6865 532.459 23.6388 533.107 23.0333L531.741 21.5722ZM530.842 27.2871H540.686V25.2871H530.842V27.2871ZM541.685 26.2627C541.642 24.4778 541.124 22.9471 540.045 21.7728L538.572 23.1256C539.251 23.8654 539.651 24.8933 539.686 26.3115L541.685 26.2627ZM540.053 21.7811C538.976 20.5824 537.527 20.0137 535.822 20.0137V22.0137C537.047 22.0137 537.922 22.402 538.565 23.1173L540.053 21.7811ZM588.879 13.8066H589.879V12.8066H588.879V13.8066ZM588.879 19.3438L589.224 20.2823L589.879 20.0415V19.3438H588.879ZM584.338 21.0137L583.993 20.0751L582.9 20.4771L583.462 21.4967L584.338 21.0137ZM581.496 33.2891L580.88 32.5017L580.877 32.504L581.496 33.2891ZM567.346 36.0137L567.557 35.0363L566.822 34.8773L566.465 35.5396L567.346 36.0137ZM568.312 38.7676L567.99 39.7142L567.999 39.7173L568.008 39.7202L568.312 38.7676ZM583.4 58.0449L582.856 57.2064L582.853 57.2078L583.4 58.0449ZM558 59.041L558.526 58.1905L558.524 58.1894L558 59.041ZM561.574 44.5977L561.802 45.5713L564.789 44.872L561.964 43.6767L561.574 44.5977ZM558.908 42.5176L558.118 43.1305L558.126 43.1403L558.908 42.5176ZM558.645 36.9512L559.454 37.5382L559.461 37.5286L558.645 36.9512ZM562.189 34.1094L562.709 34.9636L564.342 33.9697L562.595 33.1951L562.189 34.1094ZM558.117 30.5352L557.261 31.0512L557.265 31.0587L558.117 30.5352ZM577.307 13.8066L577.142 14.793L577.224 14.8066H577.307V13.8066ZM565.383 53.3867L565.883 52.5205L565.876 52.5169L565.87 52.5134L565.383 53.3867ZM576.105 53.2109L575.728 52.2846L575.715 52.2901L576.105 53.2109ZM577.102 48.6699L577.445 47.7307L577.437 47.7277L577.429 47.7249L577.102 48.6699ZM565.119 48.9922L564.569 48.1572L564.558 48.1645L564.547 48.1721L565.119 48.9922ZM573.527 28.5137L572.716 27.9289L572.712 27.9351L572.707 27.9415L573.527 28.5137ZM587.879 13.8066V19.3438H589.879V13.8066H587.879ZM588.534 18.4052L583.993 20.0751L584.683 21.9522L589.224 20.2823L588.534 18.4052ZM583.462 21.4967C583.993 22.4592 584.275 23.6062 584.275 24.9688H586.275C586.275 23.3235 585.932 21.8338 585.213 20.5306L583.462 21.4967ZM584.275 24.9688C584.275 28.2765 583.127 30.7425 580.88 32.5017L582.113 34.0764C584.905 31.8903 586.275 28.8094 586.275 24.9688H584.275ZM580.877 32.504C578.628 34.2782 575.15 35.248 570.275 35.248V37.248C575.361 37.248 579.364 36.2452 582.116 34.0741L580.877 32.504ZM570.275 35.248C569.076 35.248 568.18 35.1709 567.557 35.0363L567.134 36.9911C567.957 37.169 569.014 37.248 570.275 37.248V35.248ZM566.465 35.5396C566.135 36.1528 565.936 36.7941 565.936 37.4492H567.936C567.936 37.2059 568.01 36.8902 568.226 36.4878L566.465 35.5396ZM565.936 37.4492C565.936 38.7072 566.991 39.3741 567.99 39.7142L568.635 37.8209C568.248 37.6893 568.055 37.5613 567.971 37.4813C567.935 37.4461 567.929 37.4296 567.931 37.4351C567.935 37.4429 567.936 37.4512 567.936 37.4492H565.936ZM568.008 39.7202C569.063 40.0567 570.378 40.207 571.916 40.207V38.207C570.485 38.207 569.398 38.0644 568.617 37.8149L568.008 39.7202ZM571.916 40.207H577.424V38.207H571.916V40.207ZM577.424 40.207C581.028 40.207 583.545 40.9698 585.151 42.3229C586.724 43.6483 587.586 45.6799 587.586 48.6113H589.586C589.586 45.2732 588.587 42.6027 586.44 40.7934C584.325 39.0116 581.261 38.207 577.424 38.207V40.207ZM587.586 48.6113C587.586 52.3078 586.035 55.1403 582.856 57.2064L583.945 58.8835C587.679 56.4573 589.586 53.0008 589.586 48.6113H587.586ZM582.853 57.2078C579.642 59.3059 575.028 60.4141 568.898 60.4141V62.4141C575.229 62.4141 580.283 61.2761 583.947 58.8821L582.853 57.2078ZM568.898 60.4141C564.281 60.4141 560.861 59.6343 558.526 58.1905L557.474 59.8916C560.256 61.6118 564.102 62.4141 568.898 62.4141V60.4141ZM558.524 58.1894C556.277 56.8064 555.191 54.8708 555.191 52.2734H553.191C553.191 55.5745 554.645 58.1506 557.476 59.8927L558.524 58.1894ZM555.191 52.2734C555.191 50.5167 555.728 49.1447 556.758 48.0741C557.809 46.9811 559.453 46.1213 561.802 45.5713L561.346 43.624C558.773 44.2263 556.726 45.2221 555.316 46.6876C553.885 48.1756 553.191 50.0654 553.191 52.2734H555.191ZM561.964 43.6767C561.118 43.3189 560.36 42.7358 559.691 41.8948L558.126 43.1403C558.98 44.2135 559.999 45.017 561.185 45.5186L561.964 43.6767ZM559.698 41.9048C559.052 41.0715 558.795 40.3339 558.795 39.6758H556.795C556.795 40.8926 557.28 42.0496 558.118 43.1304L559.698 41.9048ZM558.795 39.6758C558.795 38.8352 559.021 38.136 559.454 37.5381L557.835 36.3642C557.136 37.3288 556.795 38.446 556.795 39.6758H558.795ZM559.461 37.5286C559.9 36.9078 560.926 36.0492 562.709 34.9636L561.669 33.2552C559.859 34.3571 558.522 35.393 557.828 36.3737L559.461 37.5286ZM562.595 33.1951C561.063 32.5165 559.861 31.4625 558.969 30.0116L557.265 31.0587C558.366 32.85 559.878 34.1788 561.784 35.0236L562.595 33.1951ZM558.974 30.0191C558.11 28.5858 557.652 26.8009 557.652 24.6172H555.652C555.652 27.0819 556.171 29.2423 557.261 31.0512L558.974 30.0191ZM557.652 24.6172C557.652 21.2577 558.781 18.7603 560.973 16.9862L559.715 15.4317C556.984 17.6421 555.652 20.7501 555.652 24.6172H557.652ZM560.973 16.9862C563.192 15.1901 566.45 14.2207 570.891 14.2207V12.2207C566.19 12.2207 562.418 13.2435 559.715 15.4317L560.973 16.9862ZM570.891 14.2207C571.445 14.2207 572.449 14.2848 573.934 14.4216L574.117 12.43C572.633 12.2933 571.547 12.2207 570.891 12.2207V14.2207ZM573.934 14.4216C575.414 14.5579 576.477 14.6822 577.142 14.793L577.471 12.8202C576.73 12.6967 575.606 12.5671 574.117 12.43L573.934 14.4216ZM577.307 14.8066H588.879V12.8066H577.307V14.8066ZM562.859 51.1309C562.859 52.523 563.653 53.567 564.896 54.2601L565.87 52.5134C565.081 52.0736 564.859 51.6137 564.859 51.1309H562.859ZM564.883 54.2529C566.104 54.9572 567.654 55.2656 569.455 55.2656V53.2656C567.857 53.2656 566.693 52.9881 565.883 52.5205L564.883 54.2529ZM569.455 55.2656C572.298 55.2656 574.664 54.9075 576.495 54.1318L575.715 52.2901C574.227 52.9206 572.159 53.2656 569.455 53.2656V55.2656ZM576.482 54.1372C578.264 53.412 579.625 52.2769 579.625 50.5449H577.625C577.625 51.0004 577.306 51.6427 575.729 52.2847L576.482 54.1372ZM579.625 50.5449C579.625 49.8982 579.433 49.2938 579.02 48.7864C578.62 48.2937 578.066 47.9576 577.445 47.7307L576.758 49.6092C577.153 49.7533 577.361 49.9153 577.468 50.0476C577.564 50.1652 577.625 50.3127 577.625 50.5449H579.625ZM577.429 47.7249C576.257 47.3193 574.671 47.1426 572.736 47.1426V49.1426C574.591 49.1426 575.915 49.3175 576.774 49.6149L577.429 47.7249ZM572.736 47.1426H568.254V49.1426H572.736V47.1426ZM568.254 47.1426C566.867 47.1426 565.621 47.4636 564.569 48.1572L565.669 49.8271C566.336 49.3879 567.18 49.1426 568.254 49.1426V47.1426ZM564.547 48.1721C563.506 48.8985 562.859 49.8905 562.859 51.1309H564.859C564.859 50.6915 565.053 50.2577 565.691 49.8123L564.547 48.1721ZM566.463 24.6758C566.463 26.4601 566.768 27.9762 567.528 29.07C568.335 30.2297 569.553 30.7734 571.008 30.7734V28.7734C570.1 28.7734 569.545 28.4676 569.17 27.9281C568.749 27.3226 568.463 26.2899 568.463 24.6758H566.463ZM571.008 30.7734C572.402 30.7734 573.56 30.2146 574.347 29.0859L572.707 27.9415C572.323 28.4924 571.801 28.7734 571.008 28.7734V30.7734ZM574.339 29.0985C575.122 28.0118 575.436 26.5042 575.436 24.7344H573.436C573.436 26.3239 573.144 27.3359 572.716 27.9289L574.339 29.0985ZM575.436 24.7344C575.436 22.9365 575.143 21.4134 574.411 20.3136C573.633 19.1419 572.443 18.5781 571.008 18.5781V20.5781C571.858 20.5781 572.382 20.8737 572.746 21.4208C573.157 22.0398 573.436 23.0948 573.436 24.7344H575.436ZM571.008 18.5781C569.553 18.5781 568.335 19.1219 567.528 20.2816C566.768 21.3754 566.463 22.8915 566.463 24.6758H568.463C568.463 23.0617 568.749 22.0289 569.17 21.4235C569.545 20.884 570.1 20.5781 571.008 20.5781V18.5781ZM616.828 13.4551L617.007 12.4712L616.999 12.4699L616.828 13.4551ZM617.473 13.5723L618.468 13.6667L618.555 12.7526L617.652 12.5884L617.473 13.5723ZM616.447 24.3828L616.205 25.353L617.333 25.635L617.443 24.4772L616.447 24.3828ZM607.102 25.7598L607.809 26.4669L607.815 26.4608L607.102 25.7598ZM605.402 47V48H606.402V47H605.402ZM593.947 47H592.947V48H593.947V47ZM593.947 13.8066V12.8066H592.947V13.8066H593.947ZM602.473 13.8066L603.42 13.4873L603.191 12.8066H602.473V13.8066ZM604.26 19.1094L603.312 19.4287L603.542 20.1094H604.26V19.1094ZM604.816 19.1094V20.1094H605.411L605.695 19.5875L604.816 19.1094ZM608.801 14.8613L609.335 15.7066L609.338 15.705L608.801 14.8613ZM613.986 14.2207C614.93 14.2207 615.82 14.2947 616.657 14.4403L616.999 12.4699C616.04 12.3029 615.035 12.2207 613.986 12.2207V14.2207ZM616.649 14.4389L617.294 14.5561L617.652 12.5884L617.007 12.4712L616.649 14.4389ZM616.477 13.4778L615.452 24.2884L617.443 24.4772L618.468 13.6667L616.477 13.4778ZM616.69 23.4127C615.636 23.1493 614.243 23.0312 612.551 23.0312V25.0312C614.179 25.0312 615.383 25.1476 616.205 25.353L616.69 23.4127ZM612.551 23.0312C609.926 23.0312 607.79 23.6326 606.388 25.0587L607.815 26.4608C608.678 25.5823 610.175 25.0312 612.551 25.0312V23.0312ZM606.394 25.0527C605.017 26.43 604.402 28.3612 604.402 30.6816H606.402C606.402 28.7052 606.92 27.3552 607.809 26.4669L606.394 25.0527ZM604.402 30.6816V47H606.402V30.6816H604.402ZM605.402 46H593.947V48H605.402V46ZM594.947 47V13.8066H592.947V47H594.947ZM593.947 14.8066H602.473V12.8066H593.947V14.8066ZM601.525 14.126L603.312 19.4287L605.207 18.79L603.42 13.4873L601.525 14.126ZM604.26 20.1094H604.816V18.1094H604.26V20.1094ZM605.695 19.5875C606.57 17.9801 607.779 16.6902 609.335 15.7066L608.266 14.0161C606.424 15.1809 604.977 16.723 603.938 18.6312L605.695 19.5875ZM609.338 15.705C610.924 14.6955 612.469 14.2207 613.986 14.2207V12.2207C612.027 12.2207 610.115 12.8397 608.264 14.0177L609.338 15.705ZM643.781 47L642.887 47.4472L643.163 48H643.781V47ZM641.584 42.6055L642.478 42.1583L642.202 41.6055H641.584V42.6055ZM641.35 42.6055V41.6055H640.871L640.571 41.9779L641.35 42.6055ZM624.035 28.9824L624.608 29.8023L624.612 29.7992L624.035 28.9824ZM634.729 26.0527L634.697 25.0532L634.69 25.0535L634.683 25.0538L634.729 26.0527ZM640.266 25.877L640.297 26.8764L641.266 26.8457V25.877H640.266ZM626.994 23.7676L626.078 24.1688L626.48 25.0862L627.397 24.683L626.994 23.7676ZM623.684 16.209L623.226 15.32L622.391 15.75L622.768 16.6102L623.684 16.209ZM648.205 16.3848L647.533 17.1253L647.536 17.1281L648.205 16.3848ZM651.721 47V48H652.721V47H651.721ZM638.83 38.1816L638.168 37.4318L638.161 37.4383L638.83 38.1816ZM640.324 32.1758H641.324V31.1303L640.28 31.1768L640.324 32.1758ZM637.688 32.293L637.724 33.2923L637.732 33.292L637.688 32.293ZM644.676 46.5528L642.478 42.1583L640.69 43.0527L642.887 47.4472L644.676 46.5528ZM641.584 41.6055H641.35V43.6055H641.584V41.6055ZM640.571 41.9779C639.09 43.8147 637.638 44.9977 636.231 45.6156L637.035 47.4469C638.83 46.6586 640.523 45.2243 642.128 43.2331L640.571 41.9779ZM636.231 45.6156C634.8 46.2439 632.88 46.5859 630.422 46.5859V48.5859C633.042 48.5859 635.263 48.2249 637.035 47.4469L636.231 45.6156ZM630.422 46.5859C627.51 46.5859 625.332 45.7204 623.761 44.0815L622.317 45.4653C624.34 47.5764 627.084 48.5859 630.422 48.5859V46.5859ZM623.761 44.0815C622.192 42.4446 621.344 40.0861 621.344 36.8633H619.344C619.344 40.4374 620.292 43.3522 622.317 45.4653L623.761 44.0815ZM621.344 36.8633C621.344 33.5883 622.465 31.2989 624.608 29.8023L623.463 28.1626C620.684 30.1035 619.344 33.068 619.344 36.8633H621.344ZM624.612 29.7992C626.853 28.2162 630.2 27.2622 634.774 27.0517L634.683 25.0538C629.921 25.273 626.139 26.2721 623.458 28.1656L624.612 29.7992ZM634.76 27.0522L640.297 26.8764L640.234 24.8775L634.697 25.0532L634.76 27.0522ZM641.266 25.877V25.4082H639.266V25.877H641.266ZM641.266 25.4082C641.266 23.8905 640.891 22.5678 639.967 21.63C639.04 20.6896 637.728 20.3066 636.223 20.3066V22.3066C637.412 22.3066 638.122 22.6072 638.543 23.034C638.966 23.4635 639.266 24.1916 639.266 25.4082H641.266ZM636.223 20.3066C633.599 20.3066 630.374 21.1888 626.592 22.8522L627.397 24.683C631.075 23.0651 634.003 22.3066 636.223 22.3066V20.3066ZM627.91 23.3664L624.6 15.8078L622.768 16.6102L626.078 24.1688L627.91 23.3664ZM624.142 17.098C627.826 15.2 632.539 14.2207 638.332 14.2207V12.2207C632.328 12.2207 627.276 13.2336 623.226 15.32L624.142 17.098ZM638.332 14.2207C642.431 14.2207 645.45 15.2347 647.533 17.1253L648.877 15.6443C646.312 13.3161 642.749 12.2207 638.332 12.2207V14.2207ZM647.536 17.1281C649.627 19.0098 650.721 21.6646 650.721 25.2324H652.721C652.721 21.2221 651.471 17.9785 648.874 15.6415L647.536 17.1281ZM650.721 25.2324V47H652.721V25.2324H650.721ZM651.721 46H643.781V48H651.721V46ZM635.285 40.5C636.904 40.5 638.328 39.9789 639.499 38.9249L638.161 37.4383C637.379 38.1422 636.44 38.5 635.285 38.5V40.5ZM639.492 38.9315C640.717 37.8505 641.324 36.428 641.324 34.7539H639.324C639.324 35.8923 638.936 36.755 638.168 37.4318L639.492 38.9315ZM641.324 34.7539V32.1758H639.324V34.7539H641.324ZM640.28 31.1768L637.643 31.294L637.732 33.292L640.369 33.1748L640.28 31.1768ZM637.651 31.2936C635.678 31.3652 634.03 31.7651 632.854 32.6301C631.62 33.5378 631.033 34.8632 631.033 36.4531H633.033C633.033 35.4064 633.388 34.72 634.039 34.241C634.749 33.7193 635.927 33.3575 637.724 33.2923L637.651 31.2936ZM631.033 36.4531C631.033 37.6402 631.353 38.7096 632.162 39.468C632.96 40.2149 634.063 40.5 635.285 40.5V38.5C634.34 38.5 633.817 38.2773 633.53 38.0085C633.255 37.7513 633.033 37.2973 633.033 36.4531H631.033ZM700.266 47H699.266V48H700.266V47ZM699.328 23.9141L698.446 24.3854L698.451 24.3946L698.456 24.4036L699.328 23.9141ZM691.33 47V48H692.33V47H691.33ZM679.846 47H678.846V48H679.846V47ZM678.967 23.9141L678.079 24.3735L678.082 24.3798L678.967 23.9141ZM670.969 47V48H671.969V47H670.969ZM659.514 47H658.514V48H659.514V47ZM659.514 13.8066V12.8066H658.514V13.8066H659.514ZM668.156 13.8066L669.1 13.4763L668.866 12.8066H668.156V13.8066ZM669.592 17.9082L668.648 18.2386L668.882 18.9082H669.592V17.9082ZM670.266 17.9082V18.9082H670.843L671.132 18.4079L670.266 17.9082ZM674.074 14.4219L673.644 13.5192L673.64 13.5212L674.074 14.4219ZM689.865 17.5859L689.032 18.1393L689.329 18.5859H689.865V17.5859ZM690.773 17.5859V18.5859H691.3L691.598 18.1515L690.773 17.5859ZM694.67 14.3926L695.087 15.3015L695.092 15.2993L694.67 14.3926ZM711.721 47V48H712.721V47H711.721ZM701.266 47V28.9531H699.266V47H701.266ZM701.266 28.9531C701.266 26.6481 700.951 24.7617 700.2 23.4245L698.456 24.4036C698.955 25.293 699.266 26.766 699.266 28.9531H701.266ZM700.21 23.4427C699.833 22.7379 699.319 22.1663 698.654 21.7768C697.991 21.3884 697.236 21.2148 696.428 21.2148V23.2148C696.947 23.2148 697.34 23.3245 697.643 23.5025C697.945 23.6794 698.217 23.9574 698.446 24.3854L700.21 23.4427ZM696.428 21.2148C695.404 21.2148 694.461 21.4351 693.639 21.915C692.815 22.3958 692.167 23.104 691.683 23.9919L693.438 24.9496C693.774 24.3335 694.181 23.9138 694.646 23.6426C695.113 23.3706 695.694 23.2148 696.428 23.2148V21.2148ZM691.683 23.9919C690.739 25.7216 690.33 28.2829 690.33 31.5312H692.33C692.33 28.3734 692.741 26.2276 693.438 24.9496L691.683 23.9919ZM690.33 31.5312V47H692.33V31.5312H690.33ZM691.33 46H679.846V48H691.33V46ZM680.846 47V28.9531H678.846V47H680.846ZM680.846 28.9531C680.846 26.6536 680.551 24.7778 679.852 23.4483L678.082 24.3798C678.554 25.2769 678.846 26.7604 678.846 28.9531H680.846ZM679.855 23.4546C679.49 22.7492 678.987 22.1741 678.33 21.7814C677.675 21.3895 676.926 21.2148 676.125 21.2148V23.2148C676.632 23.2148 677.012 23.3234 677.304 23.4979C677.594 23.6716 677.858 23.9461 678.079 24.3735L679.855 23.4546ZM676.125 21.2148C675.074 21.2148 674.111 21.4505 673.274 21.9625C672.437 22.4744 671.789 23.2255 671.309 24.1613L673.089 25.0731C673.43 24.4073 673.846 23.9573 674.318 23.6684C674.79 23.3796 675.379 23.2148 676.125 23.2148V21.2148ZM671.309 24.1613C670.374 25.9863 669.969 28.8074 669.969 32.4688H671.969C671.969 28.8644 672.383 26.4512 673.089 25.0731L671.309 24.1613ZM669.969 32.4688V47H671.969V32.4688H669.969ZM670.969 46H659.514V48H670.969V46ZM660.514 47V13.8066H658.514V47H660.514ZM659.514 14.8066H668.156V12.8066H659.514V14.8066ZM667.212 14.137L668.648 18.2386L670.536 17.5779L669.1 13.4763L667.212 14.137ZM669.592 18.9082H670.266V16.9082H669.592V18.9082ZM671.132 18.4079C671.905 17.0671 673.02 16.0405 674.509 15.3226L673.64 13.5212C671.808 14.4048 670.384 15.7024 669.399 17.4085L671.132 18.4079ZM674.505 15.3245C676.032 14.5965 677.786 14.2207 679.787 14.2207V12.2207C677.531 12.2207 675.476 12.6457 673.644 13.5192L674.505 15.3245ZM679.787 14.2207C684.373 14.2207 687.348 15.605 689.032 18.1393L690.698 17.0325C688.515 13.7466 684.771 12.2207 679.787 12.2207V14.2207ZM689.865 18.5859H690.773V16.5859H689.865V18.5859ZM691.598 18.1515C692.423 16.9484 693.574 15.9956 695.087 15.3015L694.253 13.4837C692.446 14.3129 690.999 15.4891 689.949 17.0204L691.598 18.1515ZM695.092 15.2993C696.628 14.5846 698.328 14.2207 700.207 14.2207V12.2207C698.062 12.2207 696.071 12.638 694.248 13.4859L695.092 15.2993ZM700.207 14.2207C703.976 14.2207 706.56 15.1854 708.177 16.9201L709.64 15.5565C707.507 13.2677 704.289 12.2207 700.207 12.2207V14.2207ZM708.177 16.9201C709.811 18.6735 710.721 21.4378 710.721 25.4082H712.721C712.721 21.1755 711.755 17.8265 709.64 15.5565L708.177 16.9201ZM710.721 25.4082V47H712.721V25.4082H710.721ZM711.721 46H700.266V48H711.721V46ZM719.66 37.9766L718.987 37.2366L718.981 37.2428L719.66 37.9766ZM728.713 46.2676L729.392 47.0013L729.393 47.0008L728.713 46.2676ZM719.689 14.8613L720.362 15.6013L719.689 14.8613ZM728.771 14.8613L728.085 15.5887L728.771 14.8613ZM719.689 23.123L719.009 23.8563L719.016 23.8624L719.689 23.123ZM719.078 42.1367C719.078 40.5439 719.538 39.4523 720.34 38.7103L718.981 37.2428C717.673 38.4539 717.078 40.1358 717.078 42.1367H719.078ZM720.333 38.7165C721.161 37.9639 722.436 37.5117 724.318 37.5117V35.5117C722.138 35.5117 720.308 36.0361 718.987 37.2366L720.333 38.7165ZM724.318 37.5117C726.09 37.5117 727.294 37.9573 728.085 38.704L729.458 37.2492C728.179 36.0427 726.414 35.5117 724.318 35.5117V37.5117ZM728.085 38.704C728.87 39.4446 729.324 40.5383 729.324 42.1367H731.324C731.324 40.1414 730.743 38.4616 729.458 37.2492L728.085 38.704ZM729.324 42.1367C729.324 43.6765 728.863 44.7649 728.033 45.5343L729.393 47.0008C730.711 45.7781 731.324 44.1126 731.324 42.1367H729.324ZM728.034 45.5338C727.214 46.2922 726.02 46.7324 724.318 46.7324V48.7324C726.366 48.7324 728.102 48.196 729.392 47.0013L728.034 45.5338ZM724.318 46.7324C722.552 46.7324 721.289 46.2886 720.407 45.5158L719.089 47.0193C720.434 48.1996 722.218 48.7324 724.318 48.7324V46.7324ZM720.407 45.5158C719.554 44.7671 719.078 43.6892 719.078 42.1367H717.078C717.078 44.139 717.716 45.815 719.089 47.0193L720.407 45.5158ZM719.078 18.9922C719.078 17.4284 719.542 16.3468 720.362 15.6013L719.017 14.1214C717.688 15.329 717.078 17.0013 717.078 18.9922H719.078ZM720.362 15.6013C721.192 14.8472 722.459 14.3965 724.318 14.3965V12.3965C722.154 12.3965 720.336 12.9223 719.017 14.1214L720.362 15.6013ZM724.318 14.3965C726.09 14.3965 727.294 14.8421 728.085 15.5887L729.458 14.1339C728.179 12.9274 726.414 12.3965 724.318 12.3965V14.3965ZM728.085 15.5887C728.873 16.3315 729.324 17.4171 729.324 18.9922H731.324C731.324 17.0126 730.741 15.3443 729.458 14.1339L728.085 15.5887ZM729.324 18.9922C729.324 20.5376 728.869 21.628 728.056 22.396L729.429 23.8501C730.725 22.6259 731.324 20.9624 731.324 18.9922H729.324ZM728.056 22.396C727.238 23.1684 726.038 23.6172 724.318 23.6172V25.6172C726.388 25.6172 728.137 25.0699 729.429 23.8501L728.056 22.396ZM724.318 23.6172C722.488 23.6172 721.216 23.1612 720.363 22.3837L719.016 23.8624C720.35 25.0771 722.165 25.6172 724.318 25.6172V23.6172ZM720.369 22.3898C719.54 21.6203 719.078 20.532 719.078 18.9922H717.078C717.078 20.968 717.691 22.6336 719.01 23.8563L720.369 22.3898Z" fill="#FFFCE6"/>
</svg>
